<?xml version="1.0" encoding="UTF-8"?>
<svg id="Layer_2" data-name="Layer 2" xmlns="http://www.w3.org/2000/svg" viewBox="0 0 415.18 184.62">
  <defs>
    <style>
      .cls-1 {
        fill: #dddede;
      }

      .cls-2 {
        fill: #fff;
      }

      .cls-3 {
        stroke-width: 2.5px;
      }

      .cls-3, .cls-4 {
        fill: none;
        stroke: #dddede;
        stroke-linecap: round;
        stroke-linejoin: round;
      }

      .cls-5 {
        fill: #f4f5f5;
      }

      .cls-4 {
        stroke-width: 10.01px;
      }
    </style>
  </defs>
  <g id="Layer_1-2" data-name="Layer 1">
    <rect class="cls-5" x="0" y="82.42" width="353.22" height="77.7" rx="38.22" ry="38.22"/>
    <rect class="cls-5" x="49.81" y="51.54" width="227.86" height="43.73" rx="21.86" ry="21.86"/>
    <circle class="cls-2" cx="183.07" cy="126.65" r="57.97"/>
    <line class="cls-4" x1="294.33" y1="52.3" x2="294.33" y2="156.89"/>
    <line class="cls-4" x1="408.29" y1="156.89" x2="27.1" y2="156.89"/>
    <rect class="cls-5" x="27.08" y="19.51" width="227.86" height="24.32" rx="12.16" ry="12.16"/>
    <path class="cls-4" d="M326.55,95.26c0,14.37-14.41,26-32.22,26"/>
    <path class="cls-4" d="M272.85,61.35c0,18.75,9.61,33.92,21.48,33.92"/>
    <path class="cls-1" d="M265.53,156.88c-93.18-65.51-123.2-37.98-153.69-23.29,0,0-24.04-12.54-70.02,26.26l223.72-2.97Z"/>
    <path class="cls-4" d="M277.67,124.84c0,7,7.45,12.66,16.66,12.66"/>
    <path class="cls-1" d="M90.1,7.42c-.65,13.03,7.62,24.77,17.97,31.9,5.23,3.62,11.11,6.14,17.08,8.26,6.01,2.12,12.29,3.35,18.63,4.62.12.01.11.21-.02.2-4.84-.14-9.76-.62-14.5-1.67-14.22-3.22-27.84-11.73-35.13-24.59-3.23-5.67-4.82-12.28-4.24-18.74,0-.13.21-.11.2.02h0Z"/>
    <path class="cls-1" d="M346.37,140.58c17.01,10.66,39.25,8.48,54.76-3.83,5.24-3.86,9.76-8.66,13.87-13.71.07-.1.24,0,.17.12-3.22,5.77-7.52,11.03-12.76,15.25-10.44,8.44-24.66,11.83-37.82,9.66-6.56-1.09-12.9-3.54-18.33-7.31-.11-.07,0-.25.12-.17h0Z"/>
    <path class="cls-1" d="M338.45,117.8c2.29,11.37,11.81,20.72,23.26,22.56,3.73.77,7.57.76,11.45.52.07-.01.09.11.02.12-7.59,1.95-16.15.77-22.58-3.88-6.36-4.36-11.45-12.05-12.15-19.32h0Z"/>
    <path class="cls-1" d="M63.39.09c3.09,14.49,12.27,27.05,22.8,37.15,27.31,25.33,64.68,36.02,100.73,41.51,12.2,2.04,23.04-8.54,9.06-16.74-8.81-5.34-26.73-9.85-36.12-4.51-16.06,11.55,39.84,50.62,49.67,56.28,10.18,6.05,29.51,17.4,40.83,10.33.1-.08.23.1.12.17-3.05,2.22-6.99,2.84-10.69,2.63-11.22-.83-21.47-6.33-31.09-11.76-12.75-7.63-24.77-16.44-35.82-26.38-5.51-5.06-10.87-10.35-14.86-16.78-5.2-8.14-4.4-16.31,6.25-18.28,10.88-1.74,23.23,1.25,32.65,6.8,15.39,9.23,3.92,22.18-10.22,19.74-42.84-6.89-90.09-21.56-115.02-59.71-3.88-6.29-7.15-13.1-8.5-20.42-.03-.13.2-.16.2-.03h0Z"/>
    <g>
      <g>
        <path class="cls-3" d="M375.15,125.01c-5.18-6.83-3.84-16.55,3-21.73"/>
        <path class="cls-3" d="M396.87,128.01c-6.83,5.18-16.55,3.84-21.73-3"/>
        <path class="cls-3" d="M396.87,128.01c4.93-3.73,7-9.83,5.83-15.5"/>
        <path class="cls-3" d="M395.38,102.28c-5.26-3.1-12.07-2.91-17.24,1"/>
      </g>
      <line class="cls-3" x1="375.15" y1="125.01" x2="401.99" y2="104.68"/>
      <line class="cls-3" x1="398.67" y1="107.19" x2="403.93" y2="108.39"/>
      <line class="cls-3" x1="393.09" y1="111.42" x2="392.83" y2="106"/>
      <line class="cls-3" x1="385.78" y1="116.96" x2="393.74" y2="119.29"/>
      <line class="cls-3" x1="389.99" y1="100.34" x2="394.05" y2="95.34"/>
      <line class="cls-3" x1="382.8" y1="100.86" x2="383.07" y2="95.66"/>
      <line class="cls-3" x1="396.87" y1="128.01" x2="402.51" y2="130.87"/>
      <line class="cls-3" x1="401.38" y1="122.6" x2="397.65" y2="117.69"/>
      <line class="cls-3" x1="402.92" y1="117.4" x2="408.62" y2="114.57"/>
      <line class="cls-3" x1="389.44" y1="131.03" x2="391.66" y2="136.71"/>
      <line class="cls-3" x1="392.39" y1="130.37" x2="394.05" y2="124.28"/>
      <line class="cls-3" x1="374.66" y1="106.96" x2="381.05" y2="107.12"/>
      <line class="cls-3" x1="372.26" y1="112.81" x2="367.95" y2="107.12"/>
      <line class="cls-3" x1="372.51" y1="119.61" x2="366.93" y2="114.16"/>
      <path class="cls-3" d="M387.44,108.3c-6.96,5.28-14.26,14.11-12.29,16.71"/>
      <path class="cls-3" d="M389.14,124.14c-5.15,3.9-11.4,4.29-13.99.87"/>
      <line class="cls-3" x1="379.97" y1="113.96" x2="378.57" y2="110.18"/>
      <line class="cls-3" x1="376.96" y1="119.02" x2="380.25" y2="117.45"/>
      <line class="cls-3" x1="384.13" y1="126.76" x2="384.52" y2="123.1"/>
      <line class="cls-3" x1="375.15" y1="125.01" x2="371.63" y2="127.67"/>
      <line class="cls-3" x1="381.48" y1="129.94" x2="381.97" y2="134.02"/>
    </g>
    <g>
      <path class="cls-1" d="M337.08,34.42l-3.22-.68,1.97-9.34s0-.02,0-.03c0-.05.01-.09.01-.14,0-.04,0-.08,0-.12,0-.04,0-.08-.01-.12,0-.04,0-.09-.02-.13,0-.04-.02-.08-.03-.11-.01-.04-.02-.08-.04-.12-.02-.04-.04-.07-.06-.11-.02-.04-.04-.08-.06-.11-.02-.03-.05-.06-.07-.09-.03-.04-.06-.07-.09-.11,0,0-.01-.02-.02-.02-.02-.02-.04-.03-.06-.05-.04-.03-.07-.06-.11-.09-.04-.02-.07-.04-.11-.06-.04-.02-.07-.04-.11-.05-.05-.02-.09-.03-.14-.04-.03,0-.05-.02-.08-.02-.01,0-.02,0-.03,0-.05,0-.09-.01-.14-.01-.04,0-.08,0-.12,0-.04,0-.08,0-.12.01-.04,0-.08,0-.12.02-.04,0-.09.02-.13.04-.03.01-.07.02-.1.03-.04.02-.09.04-.13.07-.03.02-.06.03-.09.05-.04.02-.07.06-.11.08-.03.03-.06.05-.09.08,0,0-.02.01-.03.02l-8.62,9.25s-.03.04-.05.07c-.03.04-.06.07-.08.11-.02.04-.04.07-.06.11-.02.04-.04.07-.05.11-.02.05-.03.09-.04.14,0,.03-.02.05-.02.08,0,.01,0,.02,0,.03,0,.05-.01.09-.02.14,0,.04,0,.08,0,.11,0,.04,0,.08.01.13,0,.04,0,.08.02.12,0,.04.02.08.04.12.01.04.02.08.04.12.02.04.04.07.06.11.02.04.04.07.06.11.02.03.05.06.07.09.03.04.06.07.09.11,0,0,.01.02.02.02.02.02.05.03.07.05.03.03.07.05.1.08.04.03.08.05.12.07.03.02.06.03.1.05.05.02.11.04.16.05.02,0,.04.02.07.02l5.13,1.09-1.31,6.21c-.15.7.3,1.38.99,1.52.09.02.18.03.27.03.6,0,1.13-.42,1.26-1.02l1.31-6.21,3.21.68c.09.02.18.03.27.03.59,0,1.13-.41,1.26-1.02.15-.69-.3-1.38-.99-1.52ZM328.45,32.59l3.92-4.2-1.02,4.81-2.9-.61Z"/>
      <path class="cls-1" d="M364.78,41.42l-3.22-.68,1.97-9.34s0-.02,0-.03c0-.05.01-.09.01-.14,0-.04,0-.08,0-.12,0-.04,0-.08-.01-.12,0-.04,0-.09-.02-.13,0-.04-.02-.08-.03-.11-.01-.04-.02-.08-.04-.12-.02-.04-.04-.07-.06-.11-.02-.04-.04-.08-.06-.11-.02-.03-.05-.06-.07-.09-.03-.04-.06-.07-.09-.11,0,0-.01-.02-.02-.02-.02-.02-.04-.03-.06-.05-.04-.03-.07-.06-.11-.09-.04-.02-.07-.04-.11-.06-.04-.02-.07-.04-.11-.05-.04-.02-.09-.03-.14-.04-.03,0-.05-.02-.08-.02-.01,0-.02,0-.03,0-.04,0-.09-.01-.13-.01-.04,0-.08,0-.12,0-.04,0-.07,0-.11.01-.05,0-.09,0-.13.02-.04,0-.08.02-.11.03-.04.01-.08.02-.12.04-.04.02-.08.04-.11.06-.03.02-.07.04-.1.06-.03.02-.07.05-.1.08-.03.03-.07.05-.1.08,0,0-.02.01-.03.02l-8.62,9.25s-.03.04-.05.06c-.03.04-.06.07-.09.11-.02.04-.04.07-.06.11-.02.04-.04.07-.05.11-.02.04-.03.09-.04.14,0,.03-.02.05-.02.08,0,.01,0,.02,0,.03,0,.05-.01.09-.02.14,0,.04,0,.08,0,.11,0,.04,0,.08.01.13,0,.04,0,.08.02.12,0,.04.02.08.04.12.01.04.02.08.04.12.02.04.04.07.06.11.02.04.04.07.06.11.02.03.05.06.07.09.03.04.06.07.09.11,0,0,.01.02.02.02.02.02.05.03.07.05.03.03.07.05.1.08.04.03.08.05.12.07.03.02.06.03.1.05.05.02.1.04.16.05.02,0,.04.02.07.02l5.13,1.09-1.31,6.21c-.15.7.3,1.38.99,1.52.09.02.18.03.27.03.6,0,1.13-.42,1.26-1.02l1.31-6.21,3.21.68c.09.02.18.03.27.03.59,0,1.13-.41,1.26-1.02.15-.7-.3-1.38-.99-1.52ZM356.14,39.59l3.92-4.2-1.02,4.81-2.9-.61Z"/>
      <path class="cls-1" d="M346.96,30.08c-2.86-.6-5.84,2.39-6.78,6.83-.43,2.02-.36,4.03.19,5.66.62,1.84,1.77,3.02,3.24,3.33.25.05.5.08.75.08,1.23,0,2.47-.63,3.56-1.81,1.17-1.27,2.04-3.08,2.47-5.1.94-4.44-.57-8.39-3.43-8.99ZM347.4,38.44c-.24,1.15-.75,2.21-1.38,2.9-.54.58-1.12.86-1.59.76-.48-.1-.9-.59-1.15-1.34-.3-.89-.33-2.06-.09-3.21.48-2.26,1.8-3.68,2.78-3.68.07,0,.13,0,.2.02,1,.21,1.75,2.13,1.24,4.55Z"/>
    </g>
  </g>
</svg>